<svg xmlns="http://www.w3.org/2000/svg" viewBox="0 0 980 980" fill="none" shape-rendering="auto" aria-hidden="true"><!-- Generated by DiceBear (https://www.dicebear.com) --><metadata xmlns:rdf="http://www.w3.org/1999/02/22-rdf-syntax-ns#" xmlns:xsi="http://www.w3.org/2001/XMLSchema-instance" xmlns:dc="http://purl.org/dc/elements/1.1/" xmlns:dcterms="http://purl.org/dc/terms/"><rdf:RDF><rdf:Description><dc:title>Lorelei</dc:title><dc:creator>Lisa Wischofsky</dc:creator><dc:source xsi:type="dcterms:URI">https://www.figma.com/community/file/1198749693280469639</dc:source><dcterms:license xsi:type="dcterms:URI">https://creativecommons.org/publicdomain/zero/1.0/</dcterms:license><dc:rights>Remix of “Lorelei” (https://www.figma.com/community/file/1198749693280469639) by “Lisa Wischofsky”, licensed under “CC0 1.0” (https://creativecommons.org/publicdomain/zero/1.0/)</dc:rights></rdf:Description></rdf:RDF></metadata><defs><g id="eyes-variant16-f60643e9"><path d="M117 20q8-1 14 3 7 8 8 18 2 15-4 30-4 10-13 14-11 2-18-7-6-10-5-22 1-13 6-24 5-8 12-12m170 7q8-3 14 3 7 8 7 18 1 13-5 25-4 7-11 10-9 1-15-5-5-5-5-12-2-14 4-26 3-8 11-13" fill="#000000"/></g><g id="eyebrows-variant13-f60643e9"><path d="m327 63 2 2-14 14-21 15-27 18q-6 5-13 7l-8 1-11 20h-2q-2-10 1-20 2-10 8-16l10-4 31-21q12-9 26-13zM10 72q15 0 28 2l26 7 15 1 24 2q11 4 23 6l34 11 3-5q3-2 5 1 7 13 11 25 2 8-6 9-7 0-12-6l-11-9-30-9-20-5-15-3-15-4-24-9c-10-4-20-4-29-9q-5-1-7-5" fill="#000000"/></g><g id="freckles-variant01-f60643e9"><path d="M339 1q6-3 7 4-1 5-6 3c-3 0-4-6-1-7M29 9q4-2 7 1 5 5 0 9-4 5-9 0c-3-3-2-9 2-10m259 1q3-3 4 1 0 2-2 3-5 0-2-4m24 0q9-2 8 7-3 6-9 2-5-6 1-9m-173 2q4-2 5 3 0 4-5 3c-2 0-3-5 0-6m216 1q4-3 7 3-2 5-6 3t-1-6M75 13q8 2 6 9-2 4-6 4-3 0-5-4-3-8 5-9M3 21q5-1 6 5c0 3-5 5-7 2q-4-4 1-7m331 5q6-3 8 5-2 6-9 4-5-5 1-9m-221 3q4 1 5 5l-2 3q-5 3-8-2 0-6 5-6M47 42q6 1 8 7-1 6-7 7-5 0-7-5-1-7 6-9" fill="#000000"/></g><g id="nose-variant04-f60643e9"><path d="M39 67a37 37 0 0 1 19 29q-1 15-13 22-9 5-18 7-4 2-8 0-2-3 1-6l21-12q5-3 5-9c0-10-5-17-7-26z" fill="#000000"/></g><g id="mouth-happy14-f60643e9"><path d="M59 44q4-1 5 2-2 5-6 8-4-6 1-10m25 12q17 5 36 7l30 3q10-1 19 2-1 3-6 4-16 3-32 2-22-2-42-9-5-2-9-6 0-4 4-3" fill="#000000"/></g><g id="head-variant01-f60643e9"><path d="M331 12q63 11 114 48 42 32 65 81 20 43 18 90 0 23-7 44l-2 1 1-21q2-45-13-87-17-46-51-79c-41-40-98-63-155-64a243 243 0 0 0-196 95 207 207 0 0 0-41 139l3 24c8 0 19 1 25 8l-4 2q-8 2-16 1-19 2-33 14a64 64 0 0 0-18 39c-4 32 13 65 40 83q25 17 55 8 6-3 14-2 3 2 5 7 8 19 21 37a251 251 0 0 0 68 63q14 11 29 17 28 12 57 20l32 8 13 3-4 1q-37 2-72-10-18-4-34-12a306 306 0 0 1-85-63l3 28q2 26-6 52-6 19-20 33-14 16-33 27-15 10-32 18-7 4-16 4l9-8 30-21 23-16q11-10 18-23 10-15 13-33 3-22 3-43v-28c-10-13-23-29-27-45-17 8-38 6-55-1q-27-11-43-34-18-24-22-55-2-32 16-56 14-17 35-21-6-22-6-44 0-38 13-74 22-58 70-99a249 249 0 0 1 198-56" fill="#000000"/><path d="M456 89q35 34 51 79 15 42 13 87l-1 21-5 15q-2 6-2 13l2 56-1 62-3 48q-3 24-15 44-15 29-43 45-20 11-41 16l-39 10-16 3q0 3 2 3 13 6 27 4-6 11-2 21 6 11 17 15 17 7 36 8 12 10 16 25 3 12-2 23-8 15-24 23-20 11-42 18-60 14-121 12-52-1-101-13-25-6-48-17-18-8-32-23-8-9-10-22 17-8 32-18 19-11 33-27 14-14 20-33 8-26 6-52l-3-28q12 13 23 22 28 24 62 41 16 8 34 12 35 12 72 10l4-1-13-3-32-8q-29-8-57-20-15-6-29-17-18-11-34-26a251 251 0 0 1-55-74q-2-5-5-7-8-1-14 2-30 9-55-8a88 88 0 0 1-40-83q3-23 18-39 14-12 33-14 8 1 16-1l4-2c-6-7-17-8-25-8l-3-24 2-46q8-52 39-93 35-47 87-72 52-24 109-23c57 1 114 24 155 64" fill="#ffffff"/><path d="M514 291q4 1 4 6 4 16 5 34l1 21q3 33 2 65 0 32-5 65-6 27-22 50-22 33-58 49-24 9-48 13v15l5 6q17 8 36 10 18 4 36 12-5 3-11 4-12 1-23-2-19-1-36-8-12-4-17-15-3-10 2-21-14 2-27-4-2 0-2-3l16-3 39-10q21-5 41-16 28-16 43-45 12-20 15-44l3-48 1-62-2-56q0-7 2-13M56 318q13-1 23 6 8 7 12 16 1 4-3 7l-12 9c-7 6-7 19 0 24q10 8 21 11 4 1 6 4l-5 3q-16 0-28-9-7-5-10-13-3-13 5-24 7-8 17-12-4-9-13-13l-23-5z" fill="#000000"/><use transform="translate(159 232)" href="#eyes-variant16-f60643e9"/><use transform="translate(164 126)" href="#eyebrows-variant13-f60643e9"/><use transform="translate(141 343)" href="#freckles-variant01-f60643e9"/><use transform="translate(359 274)" href="#nose-variant04-f60643e9"/><use transform="translate(223 402)" href="#mouth-happy14-f60643e9"/></g><g id="hair-variant30-f60643e9"><path d="M600 108q4 8 4 16 0 28-16 52l12-3q22-4 43 2 18 5 29 18 4 4 3 10h-2l-15-10q-18-8-39-8l-27 4 5 3q21 9 37 24 22 21 30 49 5 20-3 40l5 13q6 18 8 38 5 32 1 65l-1 10q11-2 21 3 15 8 19 23 4 9 3 19l-2 2-2-3q-6-12-16-22-8-6-18-7 19 21 19 50 0 14-6 29-2 4-6 5l-2-5q0-13-2-25-6-17-20-27-3-1-4 1-6 10-14 18l-15 18-2 3q4 12 5 24a201 201 0 0 1-4 72q-8 23-26 39 7 14 9 30 3 17-1 34-3 13-16 22 7 10 10 23 4 9 1 19-1 4-5 5-2 0-3-3-1-11-6-22v20q-1 20-13 37-5 6-13 11-3 0-7-3-8-7-13-15-11-15-14-31v-14q-13-2-21-12-10-10-11-24-3-32 16-58 5-7 12-11l-10-9a97 97 0 0 1-25-50q-2-28 8-52 9-24 23-45l8-10q-8-12-9-25l-3-18q-2-15-1-29-1-20 5-39-5 2-9 1-2-1-1-3l10-20 3-20q0-41-13-80l-1 16q-1 28-14 53-8 14-20 24-16 15-38 20-6 1-9-2l28-21q11-9 18-21 8-13 13-28 4-16 4-32-4 18-13 34-18 34-48 59-14 11-29 17-10 5-21 6-3 0-5-3l5-17q6-24 6-49-8 15-19 30-12 15-28 28-26 21-58 33-5 22-5 44 9 6 17 16 21 28 27 65 2 22-6 43l-16 37q26 6 33 32 4 20-2 42-10 25-33 42c9 7 12 21 15 33q4 18 1 38-2 11-8 20-2 3-6 4-9-1-17-6-19-10-30-29 4 13 13 23 6 9 14 15 2 2-1 3-6 2-12 0-13-3-21-14-9-12-12-26-6-29 5-55-12 1-25-1-14-3-21-16a75 75 0 0 1-7-57l-6 9q-10 21-4 44 2 3-1 5l-4-4q-10-15-9-31 1-24 16-40l3-3q-17-1-31-12a70 70 0 0 1-22-38q-6-30-2-59 3-43 29-78v-1q-11-12-17-27-10-29-5-58 8-46 36-84l16-22q23-28 55-49 39-24 84-37a376 376 0 0 1 198-1h4q17-5 31-17 14-14 25-31l10-14q4-4 7-1" fill="#000000"/><use transform="translate(131 168)" href="#head-variant01-f60643e9"/><path d="M598 107q5 6 6 15 0 29-16 54l19-5q23-2 46 7c9 4 19 11 22 21q1 4-2 5-10-9-23-14-29-9-58-1l17 8q28 16 44 44 13 19 13 42-3 24-17 43a150 150 0 0 1-60 48q-3 2-6 1l10-11q7-7 12-16 6-16 4-32-5-34-25-60l-7-9 4 23q2 31-10 60-10 22-30 39-10 8-24 11-4 1-4-2l7-15q7-16 6-34 0-37-13-72l-1 16q-1 28-14 53-9 14-20 24-17 15-38 20-5 1-9-2l16-12q18-11 29-29 11-16 15-34l3-27q-4 18-13 34-17 32-45 56-14 12-32 20-10 5-21 6-3 0-4-3l1-8q9-28 9-58-12 24-31 44-32 31-74 47l-3 17q-5 34 1 69 6 34 29 59l2 4q-5-1-9-4a96 96 0 0 1-33-49l2 40-1 9q0 3-3 2l-5-5q-17-10-31-24-20-20-27-47l-2-5q-24-22-40-52-18-37-13-79 5-41 30-74 35-45 84-70a351 351 0 0 1 256-25q4 2 7 1 16-5 29-17 19-18 32-40 4-6 9-7M262 714l1 2h9l13 1q14 5 21 17 6 11 8 25 4 17 1 36-1 11-8 21l-5 4-11-2a74 74 0 0 1-37-33q2 10 9 19l16 17 3 4q-4 2-10 2-16-3-27-18a81 81 0 0 1-5-77l9-14q1-2 3-1 5-4 10-3m326 15q9 6 13 16 6 14 5 28-1 4-4 7-4 2-5-1-1-12-6-22v19q-1 20-14 37-4 6-11 10l-3 1q-6-3-11-8l-13-19q-6-10-8-21-2-12 2-24l11-3 12-4 20-9z" fill="#000000"/></g><g id="hairAccessories-flowers-f60643e9"><path d="M185 7c8-2 18 4 19 12q3 8-1 17-5 11-18 9c-9 0-16-9-15-18q-1-5 3-11 4-7 12-9" fill="#000000"/><path d="M186 16q10-1 13 9c2 8-6 15-14 14q-11-5-7-17 3-4 8-6" fill="white"/><path d="M130 3q7-4 14-2 6 2 9 8 5 11 3 22 12 3 17 14c3 9 1 21-6 27q-9 7-20 4l-3 11q-5 8-15 10-12 0-22-7-7-6-8-15l-7-2v14q9 3 14 12 5 8 3 17a31 31 0 0 1-24 23q0 8-3 12-6 7-14 9-11 3-20-2-8-5-12-14H21q-11-2-18-11-8-18 7-32-3-9-1-19 4-9 10-14 7-6 16-5l11 3q7-8 17-11-6-3-11-10-5-11 1-23 5-8 15-9 7-3 13-1 7 2 10 8 12-15 30-10 4-5 9-7M85 50l-9 6 8 4z" fill="#000000"/><path d="M64 20q4-3 10-1 10 3 11 15-1 9-9 14c-9 5-22-2-22-13q1-10 10-15m72-11q9 0 13 8 4 11 0 22 9 3 13 12 2 9-4 16-7 6-17 4-3 11-14 16-8 3-15-4-6-6-7-16-6 0-11-4-6-8-1-17l7-6q-3-7-4-15 2-8 9-10 9-1 16 5 5-10 15-11M84 71q3 12-3 23 8 1 13 4 7 6 8 15 0 8-6 13-9 5-19 6 3 7-1 13c-4 7-14 9-21 5q-10-5-12-16-10 3-20 2-6-2-11-7-5-9 1-18l9-7q-7-12-4-25 4-8 12-8 10 1 18 7 4-12 15-16c8-3 18 0 21 9" fill="white"/></g><clipPath id="clip-f60643e9"><rect width="980" height="980" rx="0" ry="0"/></clipPath></defs><g clip-path="url(#clip-f60643e9)"><use transform="translate(76 3)" href="#hair-variant30-f60643e9"/><use transform="translate(183 329)" href="#hairAccessories-flowers-f60643e9"/></g></svg>