<svg xmlns="http://www.w3.org/2000/svg" viewBox="0 0 980 980" fill="none" shape-rendering="auto" aria-hidden="true"><!-- Generated by DiceBear (https://www.dicebear.com) --><metadata xmlns:rdf="http://www.w3.org/1999/02/22-rdf-syntax-ns#" xmlns:xsi="http://www.w3.org/2001/XMLSchema-instance" xmlns:dc="http://purl.org/dc/elements/1.1/" xmlns:dcterms="http://purl.org/dc/terms/"><rdf:RDF><rdf:Description><dc:title>Lorelei</dc:title><dc:creator>Lisa Wischofsky</dc:creator><dc:source xsi:type="dcterms:URI">https://www.figma.com/community/file/1198749693280469639</dc:source><dcterms:license xsi:type="dcterms:URI">https://creativecommons.org/publicdomain/zero/1.0/</dcterms:license><dc:rights>Remix of “Lorelei” (https://www.figma.com/community/file/1198749693280469639) by “Lisa Wischofsky”, licensed under “CC0 1.0” (https://creativecommons.org/publicdomain/zero/1.0/)</dc:rights></rdf:Description></rdf:RDF></metadata><defs><g id="eyes-variant24-d4d8aa07"><path d="M324 2q12 7 15 20l1 17q0 5-5 9-6 3-10-3-2-7-2-15-2-10-10-14-10-1-18 6 4 12 3 24 0 11-4 22l-4 10q-2 6-8 8-6 1-11-5-4-6-4-14-2 7-6 11-5-4-4-9 1-21 12-38 11-18 29-28 13-6 26-1m-197 9q29 13 39 44 3 10 1 19 0 3-3 2l-8-12c-7-14-18-29-32-37q-15-9-34-4l5 10 3 18-3 23q-3 9-10 17-4 5-10 5-7 0-12-7-7-12-6-26l3-21-5 8q-7 5-13 0-5-5-1-12 12-18 31-28c17-7 38-7 55 1" fill="#000000"/></g><g id="eyebrows-variant04-d4d8aa07"><path d="M315 23q6 2 9 8l-35 13-16 9q-10 6-22 8l-13 3-7 8-6 12-3-3q-2-9 2-16 3-10 8-18l9-10q8-4 15 0v6l25-13q16-9 34-7m-194 3c13 2 31 0 44 6q12 6 17 20l-1 3q-5 5-14 2l-9-8-8-2q-12-3-25-2c-12-1-23-7-36-8l-27-4-4-2q14-5 28-6 18-1 35 1" fill="#000000"/><path d="M180 29q8-3 16 2 7 6 10 15 1-6 5-11 11 4 13 14 4 9 0 16c-2 4-8 8-12 4q-6-8-6-17 0 5-5 9-5 3-8-2-4-5-6-12l-7-15z" fill="#000000"/></g><g id="nose-variant01-d4d8aa07"><path d="m42 0 3 15 3 26 8 13 6 12 5 14q5 7 5 16-1 15-14 20l-19 8q-7 5-15 5-8 1-14-5-1-3 3-5l12-3 16-5 13-5q10-4 7-14l-5-8-7-17-7-19q-6-12-5-26 0-11 4-22" fill="#000000"/></g><g id="mouth-happy04-d4d8aa07"><path d="m213 22-18 14q-16 11-36 19-5 3-10 3l-17-2h-23l-23-1q-9-2-15-9H58q-7 0-4-7 4-4 10-6 8-3 15 1l7 7 5 2 46 3q7 3 15 3l14-6 38-19q4-2 9-2" fill="#000000"/></g><g id="head-variant02-d4d8aa07"><path d="M290 4c57-1 115 19 159 56q39 34 59 81c14 34 20 73 14 109q-1 8-4 12l-2-2 1-33A215 215 0 0 0 345 21 235 235 0 0 0 75 174q-18 57-6 115l17-1q4 0 6 3 1 3-2 4l-11 3q-21 5-37 19a63 63 0 0 0-22 45q-1 18 8 35 12 20 32 31 30 16 63 6h6q3 2 4 6l15 29q10 15 21 27 23 23 51 36 43 21 90 27 6 1 10 4 1 3-2 4l-11 1a231 231 0 0 1-147-62q8 26 8 54 0 17-7 33-6 15-18 27a196 196 0 0 1-61 43l3-3 17-14q19-17 35-38a93 93 0 0 0 16-65l-3-39-2-10q-7-8-12-17-9-15-14-31-11 3-22 3c-28 1-56-12-74-34a81 81 0 0 1-18-51q0-18 8-34 14-25 39-36-11-47-2-93 12-61 51-108C149 38 219 6 290 4" fill="#000000"/><path d="M345 21a214 214 0 0 1 172 206l-1 33v15q-3 2-3 5-3 27 1 55 7 43 2 88-4 43-30 79-26 31-63 43-21 7-44 12l-33 9q3 2 7 2l36-2q-7 11-10 26-1 15 10 26 10 10 24 14 8 3 17 3 11 13 14 30 3 18-8 34-15 20-37 30-27 13-58 18a352 352 0 0 1-191-24c-18-9-38-23-48-41q-7-11-7-25 28-14 48-37 12-12 18-27 7-16 7-33 0-28-8-54l19 16a235 235 0 0 0 128 46l11-1q2-1 2-4-4-3-10-4-47-6-90-27-28-13-51-36-11-12-21-27l-15-29q-1-4-4-6h-6a82 82 0 0 1-95-37q-8-17-8-35 2-28 22-45 16-14 37-19l11-3q3-1 2-4-2-3-6-3l-17 1q-12-58 6-115 21-59 69-101a236 236 0 0 1 201-52" fill="#ffffff"/><path d="m516 275 3 3 1 13 3 45q5 30 5 60 0 23-5 47-10 43-40 76-15 15-33 25-26 16-55 21c-1 8-5 16-4 25q0 8 5 14 13 13 28 20l18 9-12 2q-9 0-17-3-14-4-24-14-11-11-10-26 3-15 10-26-18 3-36 2-4 0-7-2l33-9q23-4 44-12 38-13 63-43 26-36 30-79 5-45-2-88-4-27-1-55 0-3 3-5M66 334q8 0 15 7 3 5 1 10l-11 22q-1 5 3 9l23 10-1 2H85q-9-1-17-6-9-6-7-17l11-23c-6-4-13-2-19-8q5-6 13-6" fill="#000000"/><use transform="translate(159 232)" href="#eyes-variant24-d4d8aa07"/><use transform="translate(164 126)" href="#eyebrows-variant04-d4d8aa07"/><use transform="translate(359 274)" href="#nose-variant01-d4d8aa07"/><use transform="translate(223 402)" href="#mouth-happy04-d4d8aa07"/></g><g id="hair-variant02-d4d8aa07"><path d="M339 134q1 4-2 7l-3 12q24-6 49-8 32 0 62 3 27 4 54 12l57 16q24 7 46 11 7-1 10 4l-2 4-8 5q14 10 26 23 10 9 17 20l7 13q1 3-1 6-5 4-13 7 8 17 8 37 2 16-3 31 0 4-4 7-4 0-9-5a328 328 0 0 1-41-65l-14-2q2 5 6 9 2 2 1 6-2 3-6 3-22 4-44-2-33-8-64-23l-25-12-13-6q-5-1-7-5l6-7-1-3h-12l-17 4 3-12q-1-4-5-3l-9 9-10 12h-3q-11-4-23-5-4-1-9 1-2 2 0 4 6 5 8 12-1 13-10 23-12 18-31 30l-21 13q-5 3-6 9v29l-3 9c-14 15-28 32-33 53q-5 21-3 44v21l-1 9q-1 6-7 8-16 6-32 8l-13 2q-5-4-8-11-31-70-27-147 4-44 22-85 17-34 45-60a194 194 0 0 1 58-34l4-3a176 176 0 0 1 48-39q4-2 6 1" fill="#000000"/><use transform="translate(131 168)" href="#head-variant02-d4d8aa07"/><path d="m339 133-1 8q-3 5-4 12 23-6 47-7a338 338 0 0 1 88 6q41 10 81 23 26 8 51 11 6 1 11 4l-3 6-8 4q24 16 41 39 6 9 10 19 1 4-3 5-8 6-17 8-29 9-57 1l5 9 2 5q-2 4-7 5-22 3-43-3-35-9-65-23l-40-19-4-4 6-7-1-3q-8-1-16 1l-13 3 3-12q-1-3-4-4l-5 5q-7 6-12 13l-4 5-5-2q-12-3-25-4-4-1-5 4 6 5 9 13-1 13-10 23-13 17-30 29l-22 14q-5 3-6 9v30q0 5-4 9-23 21-32 51-4 20-3 41v27q0 4-3 7l-8-2-18-8a85 85 0 0 1-38-40q-10-18-14-39a228 228 0 0 1 4-104 178 178 0 0 1 71-103q21-14 44-24 3 0 4-3a162 162 0 0 1 47-38q3-2 6 0" fill="#000000"/></g><clipPath id="clip-d4d8aa07"><rect width="980" height="980" rx="0" ry="0"/></clipPath></defs><g clip-path="url(#clip-d4d8aa07)"><use transform="translate(76 3)" href="#hair-variant02-d4d8aa07"/></g></svg>