<svg xmlns="http://www.w3.org/2000/svg" viewBox="0 0 980 980" fill="none" shape-rendering="auto" aria-hidden="true"><!-- Generated by DiceBear (https://www.dicebear.com) --><metadata xmlns:rdf="http://www.w3.org/1999/02/22-rdf-syntax-ns#" xmlns:xsi="http://www.w3.org/2001/XMLSchema-instance" xmlns:dc="http://purl.org/dc/elements/1.1/" xmlns:dcterms="http://purl.org/dc/terms/"><rdf:RDF><rdf:Description><dc:title>Lorelei</dc:title><dc:creator>Lisa Wischofsky</dc:creator><dc:source xsi:type="dcterms:URI">https://www.figma.com/community/file/1198749693280469639</dc:source><dcterms:license xsi:type="dcterms:URI">https://creativecommons.org/publicdomain/zero/1.0/</dcterms:license><dc:rights>Remix of “Lorelei” (https://www.figma.com/community/file/1198749693280469639) by “Lisa Wischofsky”, licensed under “CC0 1.0” (https://creativecommons.org/publicdomain/zero/1.0/)</dc:rights></rdf:Description></rdf:RDF></metadata><defs><g id="eyes-variant18-c510e7c5"><path d="M100 5q20 1 38 12 23 16 29 44 2 7 0 13-1 3-3 2l-8-12q-10-22-31-36-16-10-33-6 10 19 10 40 0 13-8 23-2 3-6 2-11 0-20-5-6-1-10-7l-1-14 3-19-5 8q-7 5-13 0-5-5-1-12 8-13 22-22Q79 5 100 5m228 20q3 2 1 4l-16 7q9-1 16 3 5 2 5 8-5 7-14 7-23 1-44 10-7 3-12-1-5-5-2-12 3-4 9-7 21-10 44-17 7-3 13-2" fill="#000000"/></g><g id="eyebrows-variant01-c510e7c5"><path d="M172 1q9 3 10 13 0 13-7 22-4 5-10 1-3-6-2-14l-13 9-19 10-30 7-26 8-22 12-25 17-11 12q-2-5 1-11l12-12 23-17q25-18 55-28 14-4 28-11l22-15q6-5 14-3m93 18q4 2 6 6c17 8 33 8 49 17q6 3 9 10 4 6-2 11l-16-6c-12-6-24-7-36-11q-10-2-19-9l-7 25q-1 4-5 4l-1-8 2-11q2-13 7-24 4-8 13-4" fill="#000000"/></g><g id="nose-variant01-c510e7c5"><path d="m42 0 3 15 3 26 8 13 6 12 5 14q5 7 5 16-1 15-14 20l-19 8q-7 5-15 5-8 1-14-5-1-3 3-5l12-3 16-5 13-5q10-4 7-14l-5-8-7-17-7-19q-6-12-5-26 0-11 4-22" fill="#000000"/></g><g id="mouth-happy15-c510e7c5"><path d="M235 29q5 1 6 5 3 10-5 19c-5 4-13 8-16 15q-4 6-11 10-10 7-24 7-14-3-26-8l-33-4-9-1q-6 2-13 1t-13-3c-10-1-17 5-26 4q-9-3-10-13 0-9 5-18l-13 6q0-4 3-7 5-6 13-8 3-1 8 1 4 3 2 8-5 9-5 18 2 4 8 3 7-3 16-2l10 2 19-2 21 3 24 6c7 2 13 7 21 5q9-2 16-9 5-5 8-11l15-10 5-5 3-9z" fill="#000000"/></g><g id="head-variant01-c510e7c5"><path d="M331 12q63 11 114 48 42 32 65 81 20 43 18 90 0 23-7 44l-2 1 1-21q2-45-13-87-17-46-51-79c-41-40-98-63-155-64a243 243 0 0 0-196 95 207 207 0 0 0-41 139l3 24c8 0 19 1 25 8l-4 2q-8 2-16 1-19 2-33 14a64 64 0 0 0-18 39c-4 32 13 65 40 83q25 17 55 8 6-3 14-2 3 2 5 7 8 19 21 37a251 251 0 0 0 68 63q14 11 29 17 28 12 57 20l32 8 13 3-4 1q-37 2-72-10-18-4-34-12a306 306 0 0 1-85-63l3 28q2 26-6 52-6 19-20 33-14 16-33 27-15 10-32 18-7 4-16 4l9-8 30-21 23-16q11-10 18-23 10-15 13-33 3-22 3-43v-28c-10-13-23-29-27-45-17 8-38 6-55-1q-27-11-43-34-18-24-22-55-2-32 16-56 14-17 35-21-6-22-6-44 0-38 13-74 22-58 70-99a249 249 0 0 1 198-56" fill="#000000"/><path d="M456 89q35 34 51 79 15 42 13 87l-1 21-5 15q-2 6-2 13l2 56-1 62-3 48q-3 24-15 44-15 29-43 45-20 11-41 16l-39 10-16 3q0 3 2 3 13 6 27 4-6 11-2 21 6 11 17 15 17 7 36 8 12 10 16 25 3 12-2 23-8 15-24 23-20 11-42 18-60 14-121 12-52-1-101-13-25-6-48-17-18-8-32-23-8-9-10-22 17-8 32-18 19-11 33-27 14-14 20-33 8-26 6-52l-3-28q12 13 23 22 28 24 62 41 16 8 34 12 35 12 72 10l4-1-13-3-32-8q-29-8-57-20-15-6-29-17-18-11-34-26a251 251 0 0 1-55-74q-2-5-5-7-8-1-14 2-30 9-55-8a88 88 0 0 1-40-83q3-23 18-39 14-12 33-14 8 1 16-1l4-2c-6-7-17-8-25-8l-3-24 2-46q8-52 39-93 35-47 87-72 52-24 109-23c57 1 114 24 155 64" fill="#ffffff"/><path d="M514 291q4 1 4 6 4 16 5 34l1 21q3 33 2 65 0 32-5 65-6 27-22 50-22 33-58 49-24 9-48 13v15l5 6q17 8 36 10 18 4 36 12-5 3-11 4-12 1-23-2-19-1-36-8-12-4-17-15-3-10 2-21-14 2-27-4-2 0-2-3l16-3 39-10q21-5 41-16 28-16 43-45 12-20 15-44l3-48 1-62-2-56q0-7 2-13M56 318q13-1 23 6 8 7 12 16 1 4-3 7l-12 9c-7 6-7 19 0 24q10 8 21 11 4 1 6 4l-5 3q-16 0-28-9-7-5-10-13-3-13 5-24 7-8 17-12-4-9-13-13l-23-5z" fill="#000000"/><use transform="translate(159 232)" href="#eyes-variant18-c510e7c5"/><use transform="translate(164 126)" href="#eyebrows-variant01-c510e7c5"/><use transform="translate(359 274)" href="#nose-variant01-c510e7c5"/><use transform="translate(223 402)" href="#mouth-happy15-c510e7c5"/></g><g id="hair-variant35-c510e7c5"><path d="M346 129q28-1 55 4 16 1 30 8 17-8 35-8 17 0 32 3 25 5 46 16 16 9 29 21l8 9 9 3q12 4 22 11 28 19 50 44 22 22 32 51c7 21 4 43 1 64l33 34q13 15 21 33 12 23 11 51 0 26-14 48-15 20-27 41c-7 14-5 27-4 42l3 22 16 41q12 27 1 53-8 19-27 30-23 14-48 26-26 14-47 34-6 12-15 23l-7 8q-10 18-28 27-23 10-49 10-15 0-31-4c-31-7-60-27-91-35q-16-6-33-2-14 8-27 20-9 7-22 8-23 2-46-5-20-4-37-13l-21-12q-6-2-12 1l-32 14q-18 8-38 11-14 3-29-2-25-10-35-36-6-15-2-32c3-18 15-34 19-51q3-11-3-19c-7-11-19-14-26-25q-9-14-8-31 1-28 13-51 8-15 20-26l17-21 6-10q-2-11-7-20l-24-51q-10-26-4-52 4-23 14-44 19-36 44-68l16-24 7-12a227 227 0 0 1 109-128q45-24 95-29M75 706q11 9 13 22 2 16-5 31c-5 14-13 26-14 42-2 24 19 48 44 47q-16-2-27-14-11-13-10-29 3-19 12-35 9-17 14-36 1-11-6-19-5-5-11-6zm643-45q0 12-4 23-4 13-12 24-10 16-27 27l-24 15q-12 7-19 18l-11 22 34-26 43-24q16-9 24-24 7-15 3-31-2-12-7-24M79 414q-7 19-6 40 0 13 6 27l26 50q3-30-12-55l-14-30q-3-16 0-33zm577-158q8 18 12 37 1 15 7 29l7 15q4-23-3-45-8-20-23-36" fill="#000000"/><use transform="translate(131 168)" href="#head-variant01-c510e7c5"/><path d="M348 130q28-1 54 3 16 2 29 8l16-6q23-4 46 0 27 4 52 17 15 9 29 22l10 14q11 2 18 9 13 13 23 28 12 18 20 40 7 23 9 48l6 48q3 7 4 16l-10 11v8l25-8q0 9-7 16-7 6-16 10-20 3-35-9a67 67 0 0 1-19-43q0-27 2-52l2-23v-23q-3-21-17-34-5-5-11-4-17 5-36 5-5 0-6-5 1-10 7-19l-20 11q-12 8-26 14-3 1-7-2-20-16-44-27 4 7 5 15 0 4-4 6-7 1-16-1l-30-1q-13 35-18 71-6 27-15 52-13 38-39 67-11 12-25 22-6 3-10 8-15 16-34 27 0 34 15 65c6 10 15 22 25 28l11 2q1 3-2 5-5 6-13 8-11 2-21 0-16-4-29-14-16-13-23-33-11-24-7-49-20 3-39-2-12-3-19-13h-5q-4-1-6-6l-4-24a322 322 0 0 1 26-181 239 239 0 0 1 86-95q44-25 93-30m44 93-40 5q-11 19-19 42-8 27-9 56c-2 25-2 53-9 78q28-32 42-71l25-85z" fill="#000000"/></g><clipPath id="clip-c510e7c5"><rect width="980" height="980" rx="0" ry="0"/></clipPath></defs><g clip-path="url(#clip-c510e7c5)"><use transform="translate(76 3)" href="#hair-variant35-c510e7c5"/></g></svg>